<?xml version="1.0" encoding="UTF-8"?>
<svg width="1956px" height="1024px" viewBox="0 0 1956 1024" version="1.1" xmlns="http://www.w3.org/2000/svg" xmlns:xlink="http://www.w3.org/1999/xlink">
    <!-- Generator: Sketch 43.2 (39069) - http://www.bohemiancoding.com/sketch -->
    <title>tilt-word-white</title>
    <desc>Created with Sketch.</desc>
    <defs></defs>
    <g id="Logos" stroke="none" stroke-width="1" fill="none" fill-rule="evenodd">
        <g id="tilt-word-white">
            <g id="tilt" transform="translate(256.000000, 256.000000)" fill="#F73A6D">
                <path d="M17.0004875,512 C-0.672893729,512 -4.87027134,501.870271 7.62342704,489.376573 L489.376573,7.62342704 C501.871147,-4.8711467 512,-0.665004321 512,17.0004875 L512,479.999512 C512,497.672894 497.665004,512 479.999512,512 L17.0004875,512 Z"></path>
            </g>
            <g transform="translate(1024.000000, 338.000000)" id="Tilt" fill="#FFFFFF">
                <path d="M116.144,39.04 L116.144,348.432 L162.504,348.432 L162.504,39.04 L278.648,39.04 L278.648,0 L0,0 L0,39.04 L116.144,39.04 Z M368.288,50.752 L368.288,0 L326.808,0 L326.808,50.752 L368.288,50.752 Z M326.808,96.136 L326.808,348.432 L368.288,348.432 L368.288,96.136 L326.808,96.136 Z M449.144,0 L449.144,348.432 L490.624,348.432 L490.624,0 L449.144,0 Z M626.624,96.136 L626.624,20.496 L585.144,20.496 L585.144,96.136 L542.2,96.136 L542.2,132.736 L585.144,132.736 L585.144,293.288 C585.144,305.000059 586.282655,314.434631 588.56,321.592 C590.837345,328.749369 594.334643,334.27998 599.052,338.184 C603.769357,342.08802 609.950628,344.771993 617.596,346.236 C625.241372,347.700007 634.431946,348.432 645.168,348.432 L676.888,348.432 L676.888,311.832 L657.856,311.832 C651.349301,311.832 646.062687,311.588002 641.996,311.1 C637.929313,310.611998 634.757345,309.554675 632.48,307.928 C630.202655,306.301325 628.657337,304.024015 627.844,301.096 C627.030663,298.167985 626.624,294.264024 626.624,289.384 L626.624,132.736 L676.888,132.736 L676.888,96.136 L626.624,96.136 Z"></path>
            </g>
        </g>
    </g>
</svg>