<?xml version="1.0" encoding="UTF-8"?>
<svg width="1956px" height="1024px" viewBox="0 0 1956 1024" version="1.1" xmlns="http://www.w3.org/2000/svg" xmlns:xlink="http://www.w3.org/1999/xlink">
    <!-- Generator: Sketch 47.1 (45422) - http://www.bohemiancoding.com/sketch -->
    <title>tilt-word-white</title>
    <desc>Created with Sketch.</desc>
    <defs></defs>
    <g id="Logos" stroke="none" stroke-width="1" fill="none" fill-rule="evenodd">
        <g id="tilt-word-white">
            <g transform="translate(224.000000, 256.000000)">
                <path d="M806.144,145.824 L704,145.824 L704,105.504 L951.296,105.504 L951.296,145.824 L849.152,145.824 L849.152,422.688 L806.144,422.688 L806.144,145.824 Z M989.824,210.336 L1030.144,210.336 L1030.144,422.688 L989.824,422.688 L989.824,210.336 Z M980.416,134.176 C980.416,126.11196 983.327971,119.168029 989.152,113.344 C994.976029,107.519971 1001.91996,104.608 1009.984,104.608 C1018.04804,104.608 1024.99197,107.519971 1030.816,113.344 C1036.64003,119.168029 1039.552,126.11196 1039.552,134.176 C1039.552,142.24004 1036.64003,149.183971 1030.816,155.008 C1024.99197,160.832029 1018.04804,163.744 1009.984,163.744 C1001.91996,163.744 994.976029,160.832029 989.152,155.008 C983.327971,149.183971 980.416,142.24004 980.416,134.176 Z M1097.344,84 L1137.664,84 L1137.664,422.688 L1097.344,422.688 L1097.344,84 Z M1315.52,245.28 L1257.728,245.28 L1257.728,341.6 C1257.728,347.573363 1257.87733,353.471971 1258.176,359.296 C1258.47467,365.120029 1259.59466,370.346644 1261.536,374.976 C1263.47734,379.605356 1266.46398,383.338652 1270.496,386.176 C1274.52802,389.013348 1280.42663,390.432 1288.192,390.432 C1292.97069,390.432 1297.89864,389.984004 1302.976,389.088 C1308.05336,388.191996 1312.68265,386.549345 1316.864,384.16 L1316.864,420.896 C1312.08531,423.584013 1305.88804,425.450661 1298.272,426.496 C1290.65596,427.541339 1284.75735,428.064 1280.576,428.064 C1265.04526,428.064 1253.02404,425.898688 1244.512,421.568 C1235.99996,417.237312 1229.72802,411.637368 1225.696,404.768 C1221.66398,397.898632 1219.27467,390.208043 1218.528,381.696 C1217.78133,373.183957 1217.408,364.597377 1217.408,355.936 L1217.408,245.28 L1170.816,245.28 L1170.816,210.336 L1217.408,210.336 L1217.408,150.752 L1257.728,150.752 L1257.728,210.336 L1315.52,210.336 L1315.52,245.28 Z" id="Tilt" fill="#FFFFFF"></path>
                <g id="tilt" fill="#F73A6D">
                    <polygon id="Tilt" points="0 512 512 -2.84217094e-14 512 512"></polygon>
                </g>
            </g>
        </g>
    </g>
</svg>